# xmcd CD database file
#
# Track frame offsets:
#	150
#	11851
#	25196
#	34739
#	47364
#	50815
#	64125
#	76508
#	98573
#	110833
#	125492
#	137906
#	149492
#	163372
#	181743
#	193619
#	203740
#	216248
#	237078
#	251753
#	259399
#	276340
#
# Disc length: 3881 seconds
#
# Revision: 3
# Processed by: cddbd v1.5.1PL2 Copyright (c) Steve Scherf et al.
# Submitted via: CDex 1.51
#
DISCID=4a0f2716
DTITLE=TEATR ZWIERCIADLDobry wieczor tobie, Panie /gO - PIESNI UKRAINSKIE
DYEAR=1900
DGENRE=Country
TTITLE0=Mul gipsowy
TTITLE1=Krzywy taniec
TTITLE2=Wyjdz, wyjdz Iwanku
TTITLE3=Wierzbowa deseczka
TTITLE4=Troista muzyka
TTITLE5=Kupala na Iwana
TTITLE6=Noc ksiezycowa
TTITLE7=Posieje ja roze
TTITLE8=Ty mnie oszukalas
TTITLE9=Slowik
TTITLE10=Zagwizdali kozacy
TTITLE11=Jechal kozak za Dunaj
TTITLE12=Chodzi dynia po ogrodzie
TTITLE13=Zielona Ukraina
TTITLE14=Oj na gorze tam zency zna
TTITLE15=Zloty piernik
TTITLE16=Oj w Betlejem
TTITLE17=Ciemniusienka noc
TTITLE18=Nowa radosc
TTITLE19=W glebokiej dolinie
TTITLE20=Co to za przedziwna w swiecie nowina
TTITLE21=Dobry wieczor Tobie, Panie Gospodarzu
EXTD=
EXTT0=
EXTT1=
EXTT2=
EXTT3=
EXTT4=
EXTT5=
EXTT6=
EXTT7=
EXTT8=
EXTT9=
EXTT10=
EXTT11=
EXTT12=
EXTT13=
EXTT14=
EXTT15=
EXTT16=
EXTT17=
EXTT18=
EXTT19=
EXTT20=
EXTT21=
PLAYORDER=
